<svg viewBox="0 0 130 130" xmlns="http://www.w3.org/2000/svg">
  <g fill="none" fill-rule="evenodd">
    <path fill="#FFFFFE" d="M0 130h130V0H0z"/>
    <path fill="#1A1919" d="M53.7423704 38.3611417v12.0920721l2.4099427.8637303V52h-8.3081035v-.6830559l2.4137224-.8637303V38.3611417h-2.4137224l-1.0698089 2.9639749h-1.2073904V37.257732h12.8659794v4.0673846h-1.206332l-1.0938479-2.9639749h-2.3904394M64.5265434 42.7457728v7.6934456l1.4383538.8715454V52h-6.7277838v-.6892362l1.8815816-.8715454V38.4637389l-1.8815816-.5784661v-.6936978l5.28943-1.006008v5.7366608c.5538822-.2024631.9745213-.3367719 1.2619174-.447542 1.6582888-.5830815 2.0789279-.6938516 2.7230125-.6938516.8179263 0 1.6349369.3569259 2.1654672.9389305.663926.6890824.9081287 1.4935503.9081287 2.9872544v5.7321993l1.8582298.8715454V52h-6.5937776v-.6892362l1.3043476-.8715454v-5.1066558c0-2.0755549-.4871844-2.7010984-2.0555761-2.7010984-.5972282 0-.8837084.0235387-1.5717495.1143086M80.0596882 45.1361876c-.085356-2.2402648-.5242006-3.0151472-1.6615771-3.0151472-1.2896902 0-1.7900635.9048193-1.8371149 3.3019256l3.498692-.2867784zm3.3011365 1.3929235h-6.8194332c0 2.6172346 1.3786656 4.144681 3.716757 4.144681.6560048 0 1.4204388-.1100642 2.7760311-.37804l.1744822.9528196c-2.0773484.7126656-3.521916 1.0194695-4.7021214 1.0194695-3.2343296 0-5.3312827-2.1256146-5.3312827-5.3844317 0-3.4561684 2.2946594-5.8733002 5.571667-5.8733002 1.8371149 0 3.1925564.6658883 3.8716344 1.8622249.5670294.9995968.6995876 1.7078293.7422656 3.6565769zM22.9224444 70.6574123l1.2378641-2.978332h1.303609l-.286318 3.602007c-.7508031.2217988-.9937998.2888293-1.9445831.4662991-1.4180142.2642872-2.1912407.3557064-3.185193.3557064-4.8190516 0-7.7179265-2.7809218-7.7179265-7.3816371 0-4.8042609 3.2715308-7.8967134 8.3814766-7.8967134 1.5906897 0 3.2957846.2688889 4.5993936.7106459v3.6021603h-1.284694l-1.1271199-3.0010333c-.487061-.0243887-.8830555-.0243887-1.1936274-.0243887-3.5390864 0-5.6401758 2.3816532-5.6401758 6.4301722 0 4.0692264 1.8814315 6.2253994 5.4438565 6.2253994.4637223 0 .7498878-.0233149 1.4134379-.1102858M31.5551715 62.5763628v7.6979071l1.4425414.8680069v.6927747h-6.7296717v-.6927747l1.8831356-.8680069V58.294175l-1.8831356-.5783122v-.6927748l5.2871303-1.0024694v5.7275838c.554025-.1978477.9749253-.3323103 1.2614795-.4430804 1.6631438-.5783123 2.0840441-.6890824 2.7246308-.6890824.8172213 0 1.6352059.355849 2.1696897.9343151.6639446.6936978.9082103 1.4935503.9082103 2.9872544v5.7366608l1.855045.8680069v.6927747h-6.5918142v-.6927747l1.304684-.8680069v-5.1101943c0-2.076478-.4874627-2.6984829-2.0596176-2.6984829-.5973822 0-.8848523.0236925-1.5723075.1107701M43.0940342 57.9445759c0-.9258083.6492805-1.3878749 1.993424-1.3878749 1.4088861 0 2.0373068.4188145 2.0373068 1.3680764 0 .9689082-.6483534 1.3886364-2.0611024 1.3886364-1.3450707 0-1.9696284-.4395267-1.9696284-1.3688379zm.3345293 12.3454311v-7.4431701l-1.8821717-.5726335V61.5875l5.3558687-.9248946v9.6274016l1.8812447.8592549v.6857896h-7.2371134v-.6857896l1.8821717-.8592549zM51.483698 70.2742699V58.294175l-1.8960691-.5783122v-.6927748l5.3401197-1.0024694v14.2536513l1.8969937.8680069v.6927747h-7.2371134v-.6927747l1.8960691-.8680069M64.92698 61.9822069c-.465219-.0478308-.8670825-.0910772-1.0883676-.0910772-1.9735081 0-3.2152144 1.6603265-3.2152144 4.2551119 0 2.525255 1.1307577 3.9853949 3.1284449 3.9853949.441805 0 .6431959-.0198658 1.1751371-.1532726v-7.996157zm3.4156871 7.9293771l1.884137.5545629v.6846077l-5.2998241.9523382v-1.3256634l-1.1552429.4833514c-1.2879221.5356138-1.8876568.6890393-2.5296284.6890393-2.2852354 0-4.1493252-2.3024518-4.1493252-5.1191236 0-3.5660726 2.5966567-6.1354909 6.2337819-6.1354909.5988164 0 .8904965.0432464 1.6004146.1965191v-2.6128176l-1.9978402-.5744286v-.6881225l5.4135273-.9957374V69.911584zM76.052142 62.7102424v7.5679704l2.30459.8658141v.6910246h-7.5938454v-.6910246l1.8603188-.8658141v-7.4999882l-1.8603188-.5770048v-.6919454l5.2892554-.9319548v1.2443968c1.6836183-.8892933 2.391184-1.1773354 2.9455684-1.1773354.5108584 0 1.0185097.1738688 1.682702.5524515v2.8926969h-2.4147033l-.61639-1.6002676c-.8419619 0-1.043098.0236327-1.5971771.2209806M88.0161851 64.9671377c-.0923674-2.240877-.5424458-3.0158597-1.7057801-3.0158597-1.3259442 0-1.8399217.9094964-1.8838619 3.3027714l3.589642-.2869117zm3.3858768 1.3974145H84.402871c0 2.6135413 1.4135154 4.1445525 3.8122831 4.1445525.6730289 0 1.4583839-.1146424 2.8480725-.3780143l.1797838.9526021c-2.1320317.7081844-3.6096008 1.0194003-4.8202792 1.0194003-3.3191927 0-5.4742776-2.1254703-5.4742776-5.3848305 0-3.4606723 2.3540539-5.8729015 5.7170322-5.8729015 1.8885035 0 3.2781921.6612575 3.9711798 1.8610285.586386.9960133.7216107 1.7051148.7653963 3.6581629zM97.4961903 62.6232313v7.6549815l1.413995.8658141v.6910246h-6.7039997v-.6910246l1.8590256-.8658141v-7.4999882l-1.8590256-.5770048v-.6919454l5.2900047-.9319548v1.1963642c.5538465-.1738687.9942987-.3078382 1.2807605-.4183285 1.8158352-.600484 2.2797902-.7109743 2.8336372-.7109743.816958 0 1.548297.3314709 2.078946.9554341.663883.7789564.840461 1.3992366.840461 2.9806287v5.697769l1.882376.8658141v.6910246h-6.6176185v-.6910246l1.3285295-.8658141v-5.0058236c0-2.206276-.397109-2.7831274-1.9257192-2.7831274-.5503363 0-.9079175.0236327-1.7013725.1339695M105.826488 62.185567l-.419881-1.0688581c1.058915-.4135043 1.369143-.7620743 1.435544-1.5241487-.995865-.0664372-1.501945-.5224794-1.501945-1.3084531 0-.8941973.70635-1.4593648 1.831818-1.4593648 1.215324 0 1.92076.7629762 1.92076 2.0705274 0 1.3084531-.662336 2.3305646-1.787805 2.853044-.44303.1969068-.705588.28559-1.478491.4372533M108.824742 71.4374025v-2.5892371h1.781153l1.068753 2.0343678c.178638 0 .332986.0233871.490716.0233871 1.358233 0 1.983466-.4636139 1.983466-1.4399087 0-.6178462-.244897-.9091907-1.202962-1.46406l-1.872778-1.0626587c-1.828349-1.0438574-2.248348-1.594141-2.248348-2.882416 0-1.8619456 1.690297-3.2115161 4.077465-3.2115161.914713 0 1.891687.1533151 3.340776.488071l.558052.1297752v2.4168149h-1.784843l-1.001571-1.7717603c-.22153-.023387-.400168-.0467741-.510702-.0467741-.98174 0-1.626958.511458-1.626958 1.2629008 0 .5359151.264882.8191583 1.135934 1.3072292l1.959791 1.0871158c1.559777.8426982 2.161335 1.6652193 2.161335 2.9715313 0 1.9955423-1.805597 3.4128282-4.386008 3.4128282-.894727 0-1.919974-.1777722-3.923271-.6656903M28.1443299 90.6116939v-3.5893788h1.2208318l1.1573043 2.9718137c.7345553.1093305 1.177406.1568588 1.5369345.1568588 1.8456718 0 2.8444644-.7510393 2.8444644-2.1158476 0-.9267272-.4654076-1.5404961-1.7577461-2.3767221l-2.1571711-1.4311657c-.5769642-.3755197-.9763892-.6371535-1.1583784-.7707796-.3748734-.2617856-.7307191-.6175651-1.0187409-1.0360577-.470011-.6139208-.6674985-1.231334-.6674985-1.9778179 0-2.3776332 2.1761986-4.0508444 5.2944141-4.0508444 1.1338268 0 2.5364943.2385529 4.4483022.7700203v3.499485h-1.2243611l-1.1338268-2.8623315c-.6918967-.1094823-.9799185-.132715-1.5369345-.132715-1.7551375 0-2.648051.6174132-2.648051 1.8730429 0 .837137.2255684 1.0788788 1.825877 2.1580613l2.1372228 1.4507541c1.24523.8129932 1.7542168 1.2314858 2.2015175 1.7163359.5326178.6175651.8214068 1.4311658.8214068 2.357893 0 2.5101964-2.0466885 4.1797633-5.0932438 4.1797633-.8014586 0-1.2243611-.042973-2.9595504-.3718754l-1.4453261-.2652781-.6874467-.1532145M42.9109709 85.807477c0 1.3600178.2620654 2.6119367.7244444 3.4696124.4228334.7675933.9515273 1.0714512 1.8096662 1.0714512 1.6095048 0 2.5143379-1.4653916 2.5143379-4.1433383 0-1.3376108-.2666284-2.5689394-.7288553-3.4696125-.4191831-.7685016-.9909208-1.1188391-1.8285264-1.1188391-1.6095048 0-2.4910668 1.4691766-2.4910668 4.1907263zm-3.508909.4405712c0-3.5321402 2.4046749-5.8356771 6.1525304-5.8356771 3.6185719 0 5.9093252 2.1239776 5.9093252 5.4649008 0 3.4856608-2.4471104 5.7928312-6.1526825 5.7928312-3.5905859 0-5.9091731-2.1320017-5.9091731-5.4220549zM62.364104 81.0104434v2.6139672h-2.0664862l-1.0349118-2.0634411c-2.0663346.2247358-3.2303449 1.8189836-3.2303449 4.3698108 0 2.700498 1.339378 4.1415587 3.8239552 4.1415587.6597525 0 1.058274-.0669621 2.4219243-.3114196l.1753676.976301c-2.1326283.6659517-3.4336256.9328827-4.5742738.9328827-3.1443298 0-5.3432519-2.1961422-5.3432519-5.3216507 0-3.4999152 2.5705923-5.9360813 6.2888112-5.9360813.6133316 0 1.1872207.0623757 1.7342585.1722974.1799187.0478519.5738891.1345357 1.1916201.291545.1521573.0197217.350887.06314.6133317.1342299M65.0704657 77.5158505c0-.9291588.6523822-1.3921392 1.994558-1.3921392 1.412361 0 2.0418634.4198805 2.0418634 1.3689902 0 .972411-.6533097 1.3913777-2.0619605 1.3913777-1.3457314 0-1.9744609-.4431818-1.9744609-1.3682287zm.3385586 12.3411668V82.41735l-1.8832511-.5761363v-.6822868l5.3538623-.9293112v9.6274016l1.8832511.8619963v.6830483h-7.2371134v-.6830483l1.8832511-.8619963zM77.5617531 84.5329851c-.0914404-2.2394076-.5379669-3.015281-1.7050317-3.015281-1.3222505 0-1.8407225.9094918-1.8846634 3.3031568l3.5896951-.2878758zm3.3867005 1.3977952h-7.000068c0 2.6139671 1.4144646 4.1415587 3.8168264 4.1415587.6693255 0 1.4539186-.1102276 2.8445561-.3734894l.1788581.951687c-2.1275763.70937-3.6096542 1.0195665-4.8203505 1.0195665-3.3184683 0-5.4734303-2.129333-5.4734303-5.388307 0-3.4566498 2.3540887-5.869425 5.7209848-5.869425 1.8835804 0 3.2745273.6606008 3.9712386 1.8613318.5815983.9963285.7175986 1.7046283.7613848 3.6570774zM83.1013206 81.9307156h-1.6167845v-.8787144c1.3985367-.4598241 2.0559969-.768496 2.3820102-1.0968769.1086711-.109157.3072977-.3740145.5709761-.8348999.2180968-.3552153.3928762-.6604003.5246399-.9252578.0194702-.0429047.0668629-.109157.0854276-.1949666h1.4226858v2.615373h3.3929533v1.3153426h-3.3929533v6.2221043c0 1.4254093.4390615 1.9328381 1.6638754 1.9328381.5007926 0 1.006566-.0430564 1.6863642-.1754094l.2413404.9913584c-1.4456276.4608854-3.0196983.7684961-3.960458.7684961-2.0834665 0-3.0000771-.8391449-3.0000771-2.7477259v-6.9916616M96.0722256 91.3854729l-4.1339506-9.4183223-1.3403369-.8682614v-.6865181h6.3437577v.6865181l-1.4523526.8682614 1.5631357 4.2651464.3810383.9315498.2691768.7098106 2.2543359-5.9065068-1.4723829-.8682614v-.6865181h4.443188v.6865181l-1.293034.8682614-4.6021984 10.9731017c-.6466713 1.5111059-1.2295537 2.3116349-2.0788394 2.7773332-.6229431.355365-1.3175331.5092186-2.1424743.5092186-.6702454 0-1.2293996-.0632884-1.9877785-.2640336V93.673662h2.0751415l.4046126 1.467892c1.0475859-.2243443 1.5632897-.781374 2.2096529-2.3595992l.5593082-1.3964819"/>
  </g>
</svg>